<svg height="56.660954" viewBox="0 0 55.740749 56.660953" width="55.740749" xmlns="http://www.w3.org/2000/svg"><g stroke-width=".699653" transform="matrix(1.1955248 0 0 1.1955248 -5.449239 -5.539206)"><path d="m41.511719 5.0019531c-.543853.023258-1.068484.2090819-1.507813.5332031-.439342.3241212-.774264.773368-.960937 1.2890626-.18667.5156853-.216831 1.0740687-.08789 1.6074218.128939.5333526.411428 1.0175107.8125 1.3886719.401077.3711705.903454.6134455 1.441406.6972655.537955.08381 1.088597.0052 1.582032-.226562.493435-.231798.906937-.6069289 1.189453-1.0761722.282513-.4692531.420153-1.0120838.396483-1.5605469-.031705-.7347442-.351373-1.4265955-.888672-1.9238281-.537301-.4972355-1.247985-.7596737-1.976562-.7285157zm-29.361328 4.4355469c-.198869-.011351-.400029.00483-.595703.052734-.39135.095804-.745043.3084123-1.017579.607422-.272537.299013-.451891.672884-.513671 1.074219-.061777.401344-.0038.811419.166015 1.179687.169824.368269.444929.677714.789063.888672.344133.210944.742197.314415 1.144531.296875.538478-.02345 1.045407-.261921 1.410156-.662109.364749-.400178.557216-.92955.535156-1.472656-.01648-.405806-.15133-.798837-.388671-1.126953-.237344-.3281123-.567179-.5770742-.945313-.7167972-.189066-.0698616-.385116-.109743-.583984-.1210938zm12.671875 7.660156-2.888672 1.667969v3.333984l2.888672 1.667969 2.890625-1.667969v-3.333984zm6.572265 0-2.888672 1.667969v3.333984l2.888672 1.667969 2.890625-1.667969v-3.333984zm-9.632812 5.722656-2.890625 1.667969v2.667969h5.779297v-2.667969zm6.572265 0-2.890625 1.667969v2.667969h5.78125v-2.667969zm6.572266 0-2.888672 1.667969v2.667969h5.779297v-2.667969zm-20.236328 21.847657c-.685755.02828-1.347888.261972-1.902344.669922-.554448.407951-.976844.973095-1.21289 1.623047-.236047.649943-.275298 1.35473-.113282 2.027343.162018.672604.518037 1.281709 1.023438 1.75.50541.46829 1.138165.774919 1.816406.88086.678231.105942 1.371955.007 1.994141-.285157.622186-.292165 1.143828-.763803 1.5-1.355468.356172-.591668.531993-1.277238.501953-1.96875-.04018-.924945-.443122-1.795504-1.119141-2.421875-.67602-.626377-1.571037-.957752-2.488281-.919922z" fill="#989798"/><path d="m28.330078 8.8925781c-3.745679 0-7.40024 1.1733419-10.455078 3.3593749-3.054782 2.186032-5.358695 5.276182-6.595703 8.841797 3.329559-3.965447 9.72806-6.658203 17.054687-6.658203 7.32672 0 13.725482 2.684542 17.046875 6.658203-1.237018-3.565615-3.542912-6.655765-6.597656-8.841797-3.054838-2.186033-6.707446-3.3593749-10.453125-3.3593749zm11.439453 13.6699219-.392578.589844c-.776547 1.173261-.987663 3.10631-.15625 4.380859-.367172.198356-1.089169.468054-2.042969.451172h-18.345703c-.36717 2.143947.243287 4.929972 1.855469 6.841797 1.565756 1.852741 3.914217 2.792969 6.982422 2.792969 6.642856 0 11.559278-3.058968 13.859375-8.617188.903159.01688 2.85329.0036 3.853515-1.908203.0633-.105509.277234-.556109.357422-.720703l-.560546-.375c-.607735-.409376-2.009741-.558045-3.085938-.355469-.13927-1.012886-.70461-1.894072-1.734375-2.6875zm-28.482422 11.0625c1.237008 3.565642 3.542875 6.655765 6.597657 8.841797 3.054838 2.185985 6.707447 3.359375 10.453125 3.359375 3.745679 0 7.40024-1.17339 10.455078-3.359375 3.054746-2.186032 5.358685-5.276155 6.595703-8.841797-3.329606 3.973687-9.727969 6.658203-17.054688 6.658203-7.326627 0-13.725464-2.684516-17.046875-6.658203z" fill="#f37726"/></g></svg>