<svg height="114.86249" viewBox="0 0 114.86249 114.86249" width="114.86249" xmlns="http://www.w3.org/2000/svg"><path d="m25.744141 12.746094-12.28711 7.089844v14.177734l12.28711 7.089844 12.289062-7.089844v-14.177734zm27.949218 0-12.289062 7.089844v14.177734l12.289062 7.089844 12.289063-7.089844v-14.177734zm-40.964844 24.333984-12.28906187 7.089844v11.347656h24.57617187v-11.347656zm27.947266 0-12.287109 7.089844v11.347656h24.576172v-11.347656zm27.949219 0-12.287109 7.089844v11.347656h24.576171v-11.347656z" fill="#767677"/><path d="m89.46875 35.978516-1.669922 2.511718c-3.302069 4.989004-4.197485 13.209201-.662109 18.628907-1.561312.843455-4.631698 1.991707-8.6875 1.919921h-78.00976588c-1.56130002 9.116603 1.03913528 20.960279 7.89453128 29.089844 6.6579886 7.878309 16.6368096 11.880864 29.6835936 11.880864 28.24709 0 49.154948-13.011537 58.935547-36.646489 3.840455.0718 12.131555.01827 16.384765-8.111328.26919-.448651 1.18441-2.368464 1.52539-3.068359l-2.38867-1.597656c-2.58424-1.74077-8.54094-2.367264-13.117188-1.50586-.59221-4.307046-2.998123-8.059738-7.376953-11.433594z" fill="#0288d1"/></svg>