<svg height="100.33594" viewBox="0 0 193.96094 100.33594" width="193.96094" xmlns="http://www.w3.org/2000/svg"><path d="m141.49219 51.177734c-2.29001 0-4.37634.538942-6.25586 1.619141-1.87957 1.080197-3.36893 2.484574-4.47071 4.212891v-5.054688h-8.49023v47.50586h9.10547v-17.335938c1.70672 1.836339 3.32745 3.132536 4.86133 3.888672 1.55548.75614 3.28242 1.134766 5.18359 1.134766 3.99673 0 7.40049-1.58789 10.20899-4.763672 2.80854-3.197385 4.21289-7.669362 4.21289-13.416016 0-5.595426-1.39472-9.961175-4.18164-13.09375-2.7869-3.132574-6.17707-4.697266-10.17383-4.697266zm17.08008.777344 13.09179 34.511719c-.5401 1.922753-1.31665 3.500996-2.33203 4.732422-1.01537 1.253028-2.58201 1.878906-4.69922 1.878906-1.145 0-2.42961-.141016-3.85547-.421875l.8086 7.128906c1.6851.367254 3.40244.550784 5.15234.550784 1.72833 0 3.27369-.18353 4.63477-.550784 1.38264-.367268 2.53782-.884966 3.46679-1.554687.95055-.648119 1.78314-1.501954 2.4961-2.560547.73452-1.058597 1.50143-2.592394 2.30078-4.601563l2.17187-5.99414 12.15235-33.119141h-9.43164l-8.03516 24.433594-8.23242-24.433594zm-19.54297 6.416016c2.13881 0 3.93147.875079 5.3789 2.625 1.44747 1.74992 2.17188 4.429246 2.17188 8.037109 0 3.867105-.70318 6.652659-2.10742 8.359375-1.40426 1.685109-3.16405 2.529297-5.28125 2.529297-2.20361 0-4.07355-.91952-5.60743-2.755859-1.53387-1.857938-2.30078-4.720781-2.30078-8.587891 0-3.370218.73404-5.908522 2.20313-7.615234 1.46904-1.728317 3.31775-2.591797 5.54297-2.591797zm-32.00196 18.976562v9.136719h9.13477v-9.136719z" fill="#4e4e4e"/><path d="m25.744141 0-12.28711 7.0898438v14.1777342l12.28711 7.089844 12.289062-7.089844v-14.1777342zm27.949218 0-12.289062 7.0898438v14.1777342l12.289062 7.089844 12.289063-7.089844v-14.1777342zm-40.964844 24.333984-12.28906187 7.089844v11.347656h24.57617187v-11.347656zm27.947266 0-12.287109 7.089844v11.347656h24.576172v-11.347656zm27.949219 0-12.287109 7.089844v11.347656h24.576171v-11.347656z" fill="#767677"/><path d="m89.46875 23.232422-1.669922 2.511719c-3.302069 4.989004-4.197485 13.2092-.662109 18.628906-1.561312.843455-4.631698 1.991708-8.6875 1.919922h-78.00976588c-1.56130102 9.116603 1.03913028 20.960278 7.89453128 29.089843 6.6579886 7.878315 16.6368136 11.88086 29.6835936 11.88086 28.247091 0 49.154948-13.011533 58.935547-36.646484 3.840465.0718 12.131555.01827 16.384765-8.111329.26919-.448651 1.18441-2.368464 1.52539-3.068359l-2.38867-1.597656c-2.58424-1.74077-8.54093-2.367264-13.117188-1.50586-.59221-4.307046-2.998123-8.059737-7.376953-11.433593z" fill="#0288d1"/></svg>