<svg height="114.86249" viewBox="0 0 114.86249 114.86249" width="114.86249" xmlns="http://www.w3.org/2000/svg"><path d="m25.744141 13.798828-12.28711 7.089844v14.177734l12.28711 7.089844 12.289062-7.089844v-14.177734zm27.949218 0-12.289062 7.089844v14.177734l12.289062 7.089844 12.289063-7.089844v-14.177734zm35.775391 23.232422-1.669922 2.511719c-3.302069 4.989004-4.197485 13.2092-.662109 18.628906-1.561312.843455-4.631698 1.991708-8.6875 1.919922h-78.00976588c-1.56130002 9.116603 1.03913128 20.960279 7.89453128 29.089844 6.6579896 7.878314 16.6368136 11.880859 29.6835936 11.880859 28.247091 0 49.154948-13.011532 58.935547-36.646484 3.840465.0718 12.131555.018269 16.384765-8.111328.26919-.448651 1.18441-2.368465 1.52539-3.06836l-2.38867-1.597656c-2.58424-1.74077-8.54094-2.367263-13.117188-1.50586-.59221-4.307045-2.998123-8.059737-7.376953-11.433593zm-76.740234 1.101562-12.28906288 7.089844v11.347656h24.57617188v-11.347656zm27.947265 0-12.287109 7.089844v11.347656h24.576172v-11.347656zm27.949219 0-12.287109 7.089844v11.347656h24.576171v-11.347656z" fill="#616161"/></svg>