<svg height="24" viewBox="0 0 6.3499997 6.3500001" width="24" xmlns="http://www.w3.org/2000/svg"><path d="m3.1747901.02170414c-.61908 0-1.6803698.21071369-2.43551021 1.23041606-.37769032.5100129-.51703419 1.0192456-.55862219 1.540991-.04158827.5217453.003799 1.058573-.0139528 1.6970541v.00413.00362c0 .1110118.024961.2792637.13074147.4221964.10578015.1429324.26411581.2690516.5276162.4392496l.42943123.2950738v.6738607h.5038452v-.9394775l-.6578409-.449585-.00207-.00155c-.24125808-.1558334-.35602533-.2622822-.39635524-.3167768s-.03358991-.0478388-.03358965-.1229897c.01809618-.6651678-.02286714-1.2020592.01395254-1.6639812.03694906-.4635484.140403-.8482037.46095365-1.2810588.6413418-.86603403 1.5228527-1.02732747 2.0314007-1.02732744.508526 0 1.3895956.1613648 2.0308837 1.02732744.3205509.4328551.4240048.8175104.4609536 1.2810588.036821.461922-.00412.9988134.013953 1.6639812 0 .075151.00671.068495-.03359.1229897-.04033.054495-.1550974.1609434-.3963583.3167766l-.00207.00155-.6578409.449585v.9394777h.5038482v-.6738607l.4294312-.2950723.0062-.00413c.2586921-.1675843.4167153-.293645.5214165-.4351196.1057809-.1429327.1328084-.3111846.1328084-.4221964v-.00362-.00413c-.017753-.6384749.026085-1.1753103-.015503-1.6970556-.041588-.5217454-.1809322-1.0309781-.5586222-1.540991-.7551931-1.01977375-1.8164072-1.23041606-2.4355102-1.23041606zm.9172567 2.65668526-.3555339.3550171.3782714.3782716-.3782714.3777547.3555339.3555338.3777546-.3782713.3782714.3782713.3555338-.3555338-.3782713-.3777547.3782713-.3782716-.3555338-.3550171-.3782714.3777549zm-2.5522991.0015505-.3555339.3550171.3777549.3772379-.3777549.3767211.3555339.3555339.3782716-.3772379.3777546.3772379.3555338-.3555339-.3777546-.3767211.3777546-.3772379-.3555338-.3550171-.3777546.3772378zm1.646411 1.4433227c-.1151289 0-.1900632.074128-.2340941.1364257-.04403.062298-.071141.1293003-.094051.19327-.04582.127939-.068213.2501138-.068213.2501138l-.0330728.1875856h.1891355.6702433l-.0330729-.1875856s-.022909-.1221748-.068729-.2501138c-.0229105-.0639691-.051572-.1309722-.0956019-.19327-.044038-.0622979-.1174144-.1364257-.2325441-.1364257zm-1.0976073 1.4448731v.7601601h.5038453v-.7601601zm.8340577 0v.7601601h.5038452v-.7601601zm.8340574 0v.7601601h.5038453v-.7601601z" fill="#616161"/></svg>