<svg height="24" viewBox="0 0 6.3499997 6.3500001" width="24" xmlns="http://www.w3.org/2000/svg"><path d="m10.076172 1.2000391-1.9238282 3.3339844 1.9238282 3.3359374h3.847656l1.923828-3.3359374-1.923828-3.3339844zm9.357422 2.4034765v2.6660156h-2.666016v1.3339844h2.666016v2.6660154h1.333984v-2.6660154h2.666016v-1.3339844h-2.666016v-2.6660156zm-15.8433987 1.3275471-1.9238282 3.3359375 1.9238282 3.3359368h3.8496094l1.9238281-3.3359368-1.9238281-3.3359375zm6.4859767 3.7329998-1.9238282 3.3359375 1.9238282 3.335938h3.847656l1.923828-3.335938-1.923828-3.3359375zm-6.4859767 3.7329995-1.9238282 3.335937 1.9238282 3.335938h3.8496094l1.9238281-3.335938-1.9238281-3.335937zm12.7699997 0-1.923828 3.335937 1.923828 3.335938h3.84961l1.923828-3.335938-1.923828-3.335937zm-6.284023 3.732977-1.9238282 3.335937 1.9238282 3.333985h3.847656l1.923828-3.333985-1.923828-3.335937z" fill="#616161" transform="scale(.26458333)"/></svg>