<svg height="114.86249" viewBox="0 0 114.86249 114.86249" width="114.86249" xmlns="http://www.w3.org/2000/svg"><path d="m26.863381 14.852661-12.832121 7.403446v14.806186l12.832121 7.403457 12.832133-7.403457v-14.806186zm27.185818 0-12.832121 7.403446v14.806186l12.832121 7.403457 12.832132-7.403457v-14.806186zm35.419622 21.125855-1.66913 2.512452c-3.302069 4.989004-4.199231 13.208092-.663855 18.627798-1.561312.843455-4.630158 1.992214-8.68596 1.920429h-78.01135408c-1.56130002 9.116603 1.04087398 20.960921 7.89626998 29.090486 6.6579891 7.878309 16.6360551 11.880149 29.6828391 11.880149 28.24709 0 49.153951-13.010747 58.93455-36.645699 3.840459.0718 12.131669.01777 16.384879-8.111828.26919-.448651 1.18445-2.368809 1.52543-3.068704l-2.38697-1.59727c-2.58424-1.74077-8.54225-2.368597-13.118499-1.507193-.59221-4.307046-2.99692-8.057979-7.37575-11.431835zm-76.198167 2.286384-12.83213208 7.403434v11.849308h25.66426508v-11.849308zm27.185465 0-12.832133 7.403434v11.849308h25.664607v-11.849308zm27.185818 0-12.832133 7.403434v11.849308h25.664254v-11.849308z" fill="#616161"/></svg>