<svg height="114.86249" viewBox="0 0 114.86249 114.86249" width="114.86249" xmlns="http://www.w3.org/2000/svg"><path d="m25.304292 13.799406-12.28711 7.089844v14.177734l12.28711 7.089844 12.28906-7.089844v-14.177734zm27.949219 0-12.289062 7.089844v14.177734l12.289062 7.089844 12.289063-7.089844v-14.177734zm36.214844 23.232422-1.669922 2.511718c-3.302069 4.989004-4.197485 13.209201-.662109 18.628907-1.561312.843455-4.631698 1.991707-8.6875 1.919921h-78.0097616c-1.5613 9.116603 1.03913 20.960279 7.89453 29.089844 6.6579896 7.878314 16.6368096 11.880862 29.6835896 11.880862 28.247091 0 49.154949-13.011535 58.935548-36.646487 3.84046.0718 12.13156.01827 16.38477-8.111328.26919-.448651 1.18441-2.368464 1.52539-3.068359l-2.38867-1.597656c-2.58424-1.74077-8.54094-2.367264-13.117193-1.50586-.59221-4.307046-2.998123-8.059738-7.376953-11.433594zm-77.179683 1.101562-12.2890696 7.089844v11.347656h24.5761796v-11.347656zm27.947261 0-12.287111 7.089844v11.347656h24.576174v-11.347656zm27.949219 0-12.287109 7.089844v11.347656h24.576171v-11.347656z" fill="#616161"/></svg>