<svg height="24" viewBox="0 0 6.3499997 6.3500001" width="24" xmlns="http://www.w3.org/2000/svg"><path d="m3.1262268.53048307c-.2865879.008354-.5727528.0565035-.8435819.1476934-.6421172.2186456-1.0261698.88553313-1.0697795 1.53814023l1.3664962.151685c.014007-.088595.04982-.2590145.099793-.3698987.099036-.2993394.4576612-.42539.7424588-.3326428.2737926.072027.3431284.453327.149024.6426658-.2786626.2902715-.6245645.5122267-.890152.8169706-.2562068.2906518-.3052045.6918522-.2900644 1.0644569h1.3491993c.0003937-.1366471.0155325-.2767321.0705198-.403163.1889882-.3491119.564902-.5335459.835599-.8103179.3101953-.2701248.5387364-.669793.482997-1.0923987-.0387135-.6239991-.572333-1.10985893-1.1522744-1.26138153-.2765673-.0686624-.563647-.1001633-.8502349-.0918093zm-.7810457 4.01699403v1.2733562h1.4436699v-1.2733562z" fill="#616161" stroke-width=".264583"/></svg>