<svg height="24" viewBox="0 0 6.3499997 6.3500001" width="24" xmlns="http://www.w3.org/2000/svg"><path d="m1024 640q0 106-75 181-75 75-181 75-106 0-181-75-75-75-75-181 0-106 75-181 75-75 181-75 106 0 181 75 75 75 75 181zm512 109v-222q0-12-8-23-8-11-20-13l-185-28q-19-54-39-91 35-50 107-138 10-12 10-25 0-13-9-23-27-37-99-108-72-71-94-71-12 0-26 9l-138 108q-44-23-91-38-16-136-29-186-7-28-36-28h-222q-14 0-24.5 8.5-10.5 8.5-11.5 21.5l-28 184q-49 16-90 37l-141-107q-10-9-25-9-14 0-25 11-126 114-165 168-7 10-7 23 0 12 8 23 15 21 51 66.5 36 45.5 54 70.5-27 50-41 99l-183 27q-13 2-21 12.5-8 10.5-8 23.5v222q0 12 8 23 8 11 19 13l186 28q14 46 39 92-40 57-107 138-10 12-10 24 0 10 9 23 26 36 98.5 107.5 72.5 71.5 94.5 71.5 13 0 26-10l138-107q44 23 91 38 16 136 29 186 7 28 36 28h222q14 0 24.5-8.5 10.5-8.5 11.5-21.5l28-184q49-16 90-37l142 107q9 9 24 9 13 0 25-10 129-119 165-170 7-8 7-22 0-12-8-23-15-21-51-66.5-36-45.5-54-70.5 26-50 41-98l183-28q13-2 21-12.5 8-10.5 8-23.5z" fill="#616161" stroke-width="76.800003" transform="matrix(.0034451 0 0 -.0034451 .529163 5.379864)"/></svg>