<svg height="100.33681" viewBox="0 0 193.96094 100.33681" width="193.96094" xmlns="http://www.w3.org/2000/svg"><path d="m162.52344 38.822266v47.662109h9.13476v-17.296875c0-2.904269.27065-5.092596.8125-6.566406.56353-1.495483 1.44076-2.612706 2.63282-3.34961 1.19201-.736908 2.54726-1.105468 4.06445-1.105468 1.3221 0 2.41627.293717 3.2832.878906.88874.563517 1.50688 1.333278 1.85352 2.308594.34664.975314.51953 3.271121.51953 6.890625v18.240234h9.13672v-20.255859c0-3.099336-.16328-5.385569-.48828-6.859375-.30341-1.473811-.88889-2.817524-1.75586-4.03125-.84526-1.213723-2.11219-2.209983-3.80274-2.990235-1.69054-.780252-3.5871-1.169922-5.68945-1.169922-4.0963 0-7.61876 1.721856-10.56641 5.167969v-17.523437zm-24.44922 12.355468c-4.96323 0-8.62585 1.017365-10.98828 3.054688-2.36244 2.037323-3.54297 4.552003-3.54297 7.542969 0 3.31607 1.36482 5.905594 4.0957 7.769531 1.97231 1.343769 6.64269 2.829553 14.01172 4.455078 1.58219.368449 2.60151.76965 3.05664 1.203125.43349.455147.65039 1.029098.65039 1.722656 0 1.01866-.40119 1.830634-1.20312 2.4375-1.19206.866946-2.96964 1.300781-5.33203 1.300781-2.14572 0-3.8138-.45494-5.00586-1.365234-1.19227-.931967-1.98313-2.28721-2.37305-4.064453l-9.16797 1.398437c.84529 3.272723 2.6324 5.86225 5.36328 7.769532 2.75256 1.907285 6.4804 2.861328 11.1836 2.861328 5.18 0 9.09216-1.138328 11.73632-3.414063 2.6442-2.275735 3.9668-4.995799 3.9668-8.160156 0-2.904273-.95406-5.169396-2.86133-6.794922-1.92895-1.603848-5.33239-2.957142-10.20898-4.0625-4.85492-1.105356-7.69401-1.961493-8.51758-2.568359-.60689-.455147-.91016-1.007993-.91016-1.658203 0-.758576.34745-1.376692 1.04102-1.853516 1.04033-.671882 2.76412-1.007812 5.16992-1.007812 1.90727 0 3.37001.357034 4.38867 1.072265 1.0405.715231 1.745 1.746075 2.11328 3.089844l8.61524-1.59375c-.86693-3.012638-2.45061-5.289293-4.74805-6.828125-2.2974-1.538827-5.80833-2.306641-10.5332-2.306641zm-31.04688 26.169922v9.136719h9.13477v-9.136719z" fill="#4e4e4e"/><path d="m25.744137 0-12.28711 7.089844v14.177734l12.28711 7.089844 12.289062-7.089844v-14.177734zm27.949218 0-12.289062 7.089844v14.177734l12.289062 7.089844 12.289063-7.089844v-14.177734zm-40.964844 24.333984-12.28906169 7.089844v11.347656h24.57617169v-11.347656zm27.947266 0-12.287109 7.089844v11.347656h24.576172v-11.347656zm27.949219 0-12.287109 7.089844v11.347656h24.576171v-11.347656z" fill="#767677"/><path d="m89.46875 23.232422-1.669922 2.511719c-3.302069 4.989004-4.197485 13.2092-.662109 18.628906-1.561312.843455-4.631698 1.991708-8.6875 1.919922h-78.009769c-1.5613 9.116603 1.03913 20.960278 7.894534 29.089843 6.657989 7.878315 16.636814 11.88086 29.683594 11.88086 28.247091 0 49.154948-13.011533 58.935547-36.646484 3.840465.0718 12.131555.01827 16.384765-8.111329.26919-.448651 1.18441-2.368464 1.52539-3.068359l-2.38867-1.597656c-2.58424-1.74077-8.54093-2.367264-13.117188-1.50586-.59221-4.307046-2.998123-8.059737-7.376953-11.433593z" fill="#0288d1"/></svg>